<?xml version="1.0" encoding="utf-8"?>
<!-- Generator: Adobe Illustrator 26.3.1, SVG Export Plug-In . SVG Version: 6.00 Build 0)  -->
<svg version="1.1" id="Layer_1" xmlns="http://www.w3.org/2000/svg" xmlns:xlink="http://www.w3.org/1999/xlink" x="0px" y="0px"
	 viewBox="0 0 1000 1000" style="enable-background:new 0 0 1000 1000;" xml:space="preserve">
<style type="text/css">
	.st0{fill:#E3F3F5;}
	.st1{fill:#0E153A;}
	.st2{fill:#4D62AD;}
	.st3{fill:#45C5E4;}
</style>
<g>
	<g>
		<ellipse class="st0" cx="493.9" cy="472.8" rx="330.2" ry="386.2"/>
		<path class="st1" d="M495.6,908.6c-118.2-4.5-225.3-38.9-294.5-116.7C132,714.2,97.4,604.4,97.4,462.6
			c0-140.6,34.6-249.6,104-326.9C270.7,58.3,369.1,19.6,496.7,19.6c124,0,220.9,39.4,290.6,118.1c69.7,78.8,104.6,187.5,104.6,326.1
			c0,110.7-29.6,216-66.8,275.9C755.5,863.3,613.7,913.1,495.6,908.6z M203.8,463.8c0,117,24.9,205.7,74.7,266.1
			c49.8,60.5,122.2,90.7,217.1,90.7c95.7,0,168-30.1,216.8-90.4c48.8-60.3,73.2-149,73.2-266.4c0-116.2-24.3-204.3-73-264.3
			c-48.6-60-120.6-90.1-215.9-90.1c-95.7,0-168.4,30.2-218.3,90.7C228.7,260.5,203.8,348.4,203.8,463.8z"/>
	</g>
	<g>
		<path class="st0" d="M693.1,675.2c0,0,194.4,258.6,180.4,275.8s-274-197.2-274-197.2"/>
		<path class="st1" d="M871.9,980.4c-12.8,0.5-28.5-5.6-70.9-34.8c-24.2-16.6-55.6-39.9-93.4-69.2c-53.6-41.5-105.4-83.7-121.2-96.6
			c-2.7-2.2-3.1-6.2-0.9-8.9l28-33.9c2.2-2.7,6.2-3.1,8.9-0.8c57.8,47.5,109,87.9,150.2,118.9c5.7,4.3,13.1-2.7,9-8.6
			c-31.4-45.7-70.3-99.7-107.3-149.1c-2.1-2.8-1.5-6.7,1.3-8.8l35.2-26.4c2.8-2.1,6.8-1.5,8.9,1.3c12.4,16.6,53.1,71.4,92.2,127.2
			c27.5,39.3,49,71.4,63.7,95.5c22.7,37.2,36.3,63,20,83c-5.2,6.4-12.8,10.4-21.2,11.2C873.4,980.3,872.7,980.3,871.9,980.4z"/>
	</g>
</g>
<path class="st2" d="M357.1,500.8h-72.2c-4.3,0-7.9-3.5-7.9-7.9v-72.2c0-4.3,3.5-7.9,7.9-7.9h72.2c4.3,0,7.9,3.5,7.9,7.9v72.2
	C364.9,497.2,361.4,500.8,357.1,500.8z"/>
<path class="st3" d="M529.9,500.8h-72.2c-4.3,0-7.9-3.5-7.9-7.9v-72.2c0-4.3,3.5-7.9,7.9-7.9h72.2c4.3,0,7.9,3.5,7.9,7.9v72.2
	C537.8,497.2,534.3,500.8,529.9,500.8z"/>
<path class="st2" d="M702.8,500.8h-72.2c-4.3,0-7.9-3.5-7.9-7.9v-72.2c0-4.3,3.5-7.9,7.9-7.9h72.2c4.3,0,7.9,3.5,7.9,7.9v72.2
	C710.7,497.2,707.1,500.8,702.8,500.8z"/>
</svg>
