<svg xmlns="http://www.w3.org/2000/svg" viewBox="0 0 594.1 159.96"><defs><style>.cls-1{isolation:isolate;}.cls-2,.cls-3,.cls-4{fill:#29236a;}.cls-2{opacity:0.3;}.cls-2,.cls-3{mix-blend-mode:multiply;}.cls-3{opacity:0.8;}.cls-4{opacity:0.42;}</style></defs><title>skyline</title><g class="cls-1"><g id="Layer_1" data-name="Layer 1"><rect class="cls-2" x="524.02" y="38.2" width="23.65" height="121.76"/><rect class="cls-2" x="544.05" y="45.82" width="23.65" height="114.14"/><rect class="cls-2" x="542.8" y="89.66" width="49.31" height="70.3"/><rect class="cls-2" x="532.16" y="75.05" width="49.31" height="84.91"/><rect class="cls-2" x="532.16" y="52.81" width="23.65" height="107.15"/><rect class="cls-2" x="477.08" y="36.29" width="23.65" height="123.67"/><rect class="cls-2" x="541.43" y="79.42" width="22.7" height="80.54"/><rect class="cls-2" x="508.51" y="79.42" width="22.7" height="80.54"/><rect class="cls-2" x="496.6" y="79.42" width="22.7" height="80.54"/><rect class="cls-2" x="479" y="79.42" width="22.7" height="80.54"/><rect class="cls-2" x="471.34" y="53.46" width="28.09" height="106.49"/><rect class="cls-2" x="352.17" y="53.46" width="28.09" height="106.49"/><rect class="cls-2" x="325.21" y="64.27" width="28.09" height="95.69"/><rect class="cls-2" x="342.11" y="58.55" width="28.09" height="101.41"/><rect class="cls-2" x="305.64" y="101.85" width="15.61" height="58.11"/><rect class="cls-2" x="459.43" y="53.46" width="28.09" height="106.49"/><rect class="cls-2" x="400.07" y="30.71" width="19.58" height="129.25"/><rect class="cls-2" x="378.16" y="45.96" width="19.58" height="114"/><rect class="cls-2" x="442" y="14.19" width="19.58" height="98.79"/><rect class="cls-2" x="435.13" y="26.86" width="19.58" height="98.79"/><rect class="cls-2" x="282.72" y="47.82" width="19.58" height="112.14"/><polygon class="cls-2" points="269.58 159.96 282.8 159.96 282.8 72.95 269.58 60.53 269.58 159.96"/><polygon class="cls-2" points="323.4 159.96 336.63 159.96 336.63 78.03 323.4 65.61 323.4 159.96"/><rect class="cls-2" x="274.59" y="71.33" width="19.58" height="88.63"/><rect class="cls-2" x="230.73" y="101.09" width="25.34" height="58.87"/><rect class="cls-2" x="223.22" y="110.62" width="25.34" height="49.34"/><rect class="cls-2" x="163.86" y="79.92" width="21.19" height="80.03"/><rect class="cls-2" x="187.02" y="116.78" width="21.19" height="43.18"/><rect class="cls-2" x="146.46" y="67.22" width="14.75" height="92.74"/><rect class="cls-2" x="128.3" y="57.05" width="14.75" height="102.91"/><rect class="cls-2" x="102.47" y="42.41" width="27.05" height="117.55"/><rect class="cls-2" x="71.17" y="31.61" width="27.05" height="128.35"/><rect class="cls-2" x="107.3" y="78.27" width="16.46" height="81.69"/><rect class="cls-2" x="93.68" y="78.27" width="16.46" height="81.69"/><rect class="cls-2" x="35.23" y="31.61" width="25.54" height="128.35"/><rect class="cls-2" x="15.37" y="57.21" width="18.73" height="102.75"/><rect class="cls-2" x="30.69" y="57.21" width="18.73" height="102.75"/><rect class="cls-2" x="85.74" y="57.21" width="18.73" height="102.75"/><rect class="cls-2" x="175.78" y="99.45" width="17.21" height="60.51"/><rect class="cls-2" x="155.75" y="96.28" width="17.21" height="63.68"/><rect class="cls-2" x="255.3" y="87.75" width="12.2" height="72.21"/><rect class="cls-2" x="266.36" y="80.12" width="12.2" height="79.83"/><rect class="cls-2" x="411.19" y="46.55" width="19.58" height="113.41"/><rect class="cls-2" x="494.43" y="32.57" width="19.58" height="127.38"/><rect class="cls-2" x="505.12" y="46.79" width="19.58" height="113.17"/><rect class="cls-2" x="423.67" y="46.55" width="19.58" height="113.41"/><rect class="cls-2" x="346.5" y="56.1" width="23.65" height="103.86"/><rect class="cls-2" x="366.01" y="92.1" width="22.7" height="67.86"/><rect class="cls-2" x="348.42" y="92.1" width="22.7" height="67.86"/><rect class="cls-2" x="340.76" y="70.44" width="28.09" height="89.52"/><rect class="cls-2" x="221.59" y="70.44" width="28.09" height="89.52"/><rect class="cls-2" x="194.62" y="79.45" width="28.09" height="80.51"/><rect class="cls-2" x="211.52" y="74.68" width="28.09" height="85.28"/><rect class="cls-2" x="328.84" y="70.44" width="28.09" height="89.52"/><rect class="cls-2" x="269.48" y="51.44" width="19.58" height="108.52"/><rect class="cls-2" x="247.58" y="64.17" width="19.58" height="95.79"/><rect class="cls-2" x="311.42" y="37.65" width="19.58" height="82.47"/><rect class="cls-2" x="304.55" y="48.22" width="19.58" height="111.73"/><rect class="cls-2" x="280.6" y="64.67" width="19.58" height="95.29"/><rect class="cls-2" x="363.85" y="53" width="19.58" height="106.96"/><rect class="cls-2" x="293.09" y="64.67" width="19.58" height="95.29"/><rect class="cls-3" x="327.19" y="99.8" width="39.29" height="60.15"/><rect class="cls-3" x="238.67" y="117.85" width="9.55" height="42.1"/><rect class="cls-3" x="231.48" y="121.31" width="9.55" height="38.65"/><rect class="cls-3" x="317.74" y="104.8" width="19.01" height="55.16"/><rect class="cls-3" x="284.79" y="84.73" width="15.61" height="75.23"/><rect class="cls-3" x="255.02" y="114.78" width="11.36" height="45.18"/><rect class="cls-3" x="249.26" y="118.13" width="11.59" height="41.83"/><rect class="cls-3" x="302.98" y="116.32" width="8.04" height="43.64"/><rect class="cls-3" x="270.07" y="114.78" width="18.63" height="45.18"/><rect class="cls-3" x="460.93" y="12.92" width="19.67" height="147.04"/><polygon class="cls-3" points="429.74 159.96 439.57 159.96 449.41 159.96 449.41 72.44 449.41 16.27 439.57 16.06 429.74 36.6 429.74 82.6 429.74 159.96"/><rect class="cls-3" x="376.09" y="52.66" width="19.67" height="107.29"/><rect class="cls-3" x="435.96" y="41.14" width="13.15" height="80.55"/><rect class="cls-3" x="411.84" y="72.83" width="23.36" height="87.13"/><rect class="cls-3" x="389.71" y="76.57" width="23.36" height="83.39"/><rect class="cls-3" x="424.99" y="94.43" width="24.4" height="28.13"/><rect class="cls-3" x="432.37" y="105.37" width="24.4" height="54.59"/><rect class="cls-3" x="426.69" y="115.74" width="24.4" height="44.22"/><rect class="cls-3" x="417.05" y="123.23" width="24.4" height="36.73"/><polygon class="cls-3" points="56.54 159.96 62.02 159.96 67.5 159.96 67.5 112.58 67.5 84.51 62.02 83.91 56.54 89.08 56.54 117.75 56.54 159.96"/><rect class="cls-3" x="282.55" y="104.22" width="18.16" height="55.74"/><rect class="cls-3" x="302.98" y="69.37" width="21.56" height="90.59"/><rect class="cls-3" x="10.05" y="79.52" width="23.68" height="80.44"/><rect class="cls-3" x="35.49" y="94.22" width="13.16" height="65.74"/><rect class="cls-3" x="28.03" y="101.78" width="13.16" height="58.17"/><rect class="cls-3" x="52.59" y="105.79" width="13.16" height="54.17"/><rect class="cls-3" x="44.26" y="100" width="8.33" height="59.96"/><rect class="cls-3" x="313.57" y="113.15" width="4.92" height="46.81"/><rect class="cls-3" x="352.92" y="117.28" width="23.46" height="42.68"/><rect class="cls-3" x="479.94" y="94.91" width="17.97" height="65.05"/><rect class="cls-3" x="473.04" y="28.28" width="12.11" height="131.68"/><rect class="cls-3" x="467.74" y="53.34" width="10.03" height="106.62"/><rect class="cls-3" x="472.56" y="91.64" width="6.05" height="68.32"/><rect class="cls-3" x="532.15" y="123.9" width="6.05" height="36.06"/><rect class="cls-3" x="463.2" y="71.77" width="4.07" height="88.19"/><rect class="cls-3" x="455.26" y="76.67" width="4.07" height="83.29"/><rect class="cls-3" x="454.97" y="75.8" width="21.09" height="84.16"/><rect class="cls-3" x="491.58" y="53.34" width="22.23" height="106.62"/><rect class="cls-3" x="487.89" y="67.16" width="17.12" height="92.8"/><rect class="cls-3" x="510.87" y="76.09" width="23.36" height="83.87"/><rect class="cls-3" x="506.9" y="85.6" width="23.36" height="74.36"/><rect class="cls-3" x="484.2" y="113.82" width="29.04" height="46.14"/><rect class="cls-3" x="524.21" y="95.96" width="14.85" height="63.99"/><rect class="cls-3" x="462.35" y="59.1" width="1.8" height="100.86"/><rect class="cls-3" x="429.53" y="58.33" width="10.03" height="101.63"/><rect class="cls-3" x="424.14" y="64.09" width="1.8" height="95.87"/><rect class="cls-3" x="350.74" y="121.98" width="1.8" height="37.98"/><rect class="cls-3" x="387.91" y="83.29" width="10.03" height="76.67"/><rect class="cls-3" x="382.52" y="87.55" width="1.8" height="72.41"/><rect class="cls-3" x="508.32" y="62.26" width="1.8" height="97.69"/><rect class="cls-3" x="546.62" y="72.06" width="1.8" height="87.9"/><rect class="cls-3" x="517.58" y="77.24" width="1.8" height="82.72"/><rect class="cls-3" x="70.58" y="80.19" width="39.69" height="79.77"/><rect class="cls-3" x="128.03" y="110.02" width="15.13" height="49.94"/><rect class="cls-3" x="6.98" y="65.5" width="9.87" height="94.46"/><rect class="cls-3" x="17.94" y="91.32" width="5.26" height="68.64"/><rect class="cls-3" x="79.5" y="41.48" width="3.17" height="118.48"/><rect class="cls-3" x="58.22" y="39.57" width="3.17" height="120.39"/><rect class="cls-3" x="59.17" y="98.89" width="52.41" height="61.07"/><rect class="cls-3" y="116.56" width="29.3" height="43.4"/><rect class="cls-3" x="14.4" y="122.91" width="29.3" height="37.05"/><rect class="cls-3" x="119.26" y="49.02" width="19.96" height="110.93"/><rect class="cls-3" x="10.49" y="55.26" width="18.64" height="104.7"/><rect class="cls-3" x="59.17" y="48.58" width="18.64" height="111.38"/><rect class="cls-3" x="50.84" y="30.32" width="18.64" height="90.27"/><rect class="cls-3" x="32.86" y="42.35" width="20.83" height="117.61"/><rect class="cls-3" x="43.38" y="23.65" width="22.59" height="136.31"/><rect class="cls-3" x="71.01" y="60.15" width="22.15" height="99.8"/><rect class="cls-3" x="100.4" y="110.02" width="29.61" height="49.94"/><rect class="cls-3" x="114.87" y="64.61" width="12.06" height="95.35"/><rect class="cls-3" x="107.86" y="94.44" width="11.62" height="65.52"/><rect class="cls-3" x="81.1" y="87.76" width="9.87" height="72.2"/><rect class="cls-3" x="358.5" y="76.09" width="23.36" height="83.87"/><rect class="cls-3" x="354.53" y="85.6" width="23.36" height="74.36"/><rect class="cls-3" x="355.95" y="62.26" width="1.8" height="97.69"/><polygon class="cls-3" points="264.94 159.96 266.74 159.96 265.98 105.82 264.19 105.85 264.94 159.96"/><polygon class="cls-3" points="248.04 159.96 249.84 159.96 249.09 103.91 247.29 103.95 248.04 159.96"/><polygon class="cls-3" points="185.45 159.96 187.25 159.96 186.5 109 184.7 109.03 185.45 159.96"/><polygon class="cls-3" points="161.67 159.96 163.47 159.96 162.71 107.09 160.91 107.13 161.67 159.96"/><polygon class="cls-3" points="131.02 159.96 132.81 159.96 131.41 63.25 129.62 63.28 131.02 159.96"/><rect class="cls-3" x="293.98" y="92.49" width="1.8" height="67.47"/><rect class="cls-3" x="449.21" y="49.56" width="1.8" height="110.4"/><rect class="cls-3" x="466.73" width="1.8" height="86.79"/><rect class="cls-3" x="28.6" y="46.38" width="1.8" height="113.58"/><rect class="cls-3" x="38.62" y="48.29" width="1.8" height="111.67"/><rect class="cls-3" x="15.46" y="67.08" width="1.8" height="92.88"/><rect class="cls-3" x="443.57" y="48.29" width="1.8" height="111.67"/><rect class="cls-3" x="365.22" y="77.24" width="1.8" height="82.72"/><rect class="cls-3" x="563.83" y="96.35" width="1.8" height="63.61"/><rect class="cls-3" x="541.8" y="81.56" width="14.85" height="78.4"/><rect class="cls-3" x="550.88" y="106.62" width="14.85" height="53.34"/><rect class="cls-3" x="570.74" y="106.62" width="14.85" height="53.34"/><rect class="cls-3" x="565.35" y="125.05" width="14.85" height="34.9"/><rect class="cls-3" x="567.05" y="117.37" width="7.76" height="42.58"/><rect class="cls-3" x="547.76" y="117.37" width="7.76" height="42.58"/><rect class="cls-3" x="487.32" y="117.37" width="7.76" height="42.58"/><rect class="cls-3" x="513.99" y="117.37" width="7.76" height="42.58"/><rect class="cls-3" x="456.11" y="87.13" width="7.76" height="72.83"/><rect class="cls-3" x="450.72" y="87.13" width="2.65" height="72.83"/><rect class="cls-3" x="560.24" y="93.18" width="7.66" height="66.78"/><rect class="cls-3" x="583.22" y="113.63" width="5.39" height="46.33"/><rect class="cls-3" x="458.09" y="90.01" width="20.52" height="69.95"/><polygon class="cls-3" points="550.08 159.96 560.34 159.96 570.6 159.96 570.6 110.86 570.6 81.12 560.34 70.95 550.08 71.16 550.08 100.69 550.08 159.96"/><polygon class="cls-3" points="145.75 159.96 151.68 159.96 157.62 159.96 157.62 159.96 157.62 159.96 151.68 122.73 145.75 122.58 145.75 159.96 145.75 159.96"/><rect class="cls-3" x="533.85" y="104.7" width="19.39" height="55.26"/><rect class="cls-3" x="511.44" y="107.29" width="19.39" height="52.67"/><rect class="cls-3" x="574.14" y="115.36" width="19.96" height="44.6"/><rect class="cls-3" x="126.28" y="89.32" width="35.53" height="70.64"/><rect class="cls-3" x="153.19" y="109.01" width="18.83" height="50.94"/><polygon class="cls-3" points="167.59 159.96 177.03 159.96 177.03 159.96 167.59 159.96 167.59 159.96"/><rect class="cls-3" x="213.16" y="12.92" width="19.67" height="147.04"/><polygon class="cls-3" points="181.97 159.96 191.8 159.96 201.64 159.96 201.64 72.44 201.64 27.8 191.8 27.59 181.97 48.13 181.97 82.6 181.97 159.96"/><rect class="cls-3" x="188.19" y="41.14" width="13.15" height="80.55"/><rect class="cls-3" x="164.07" y="72.83" width="23.36" height="87.13"/><rect class="cls-3" x="141.94" y="76.57" width="23.36" height="83.39"/><rect class="cls-3" x="177.22" y="94.43" width="24.4" height="28.13"/><rect class="cls-3" x="184.6" y="105.37" width="24.4" height="54.59"/><rect class="cls-3" x="178.92" y="115.74" width="24.4" height="44.22"/><rect class="cls-3" x="169.28" y="123.23" width="24.4" height="36.73"/><rect class="cls-3" x="232.17" y="94.91" width="17.97" height="65.05"/><rect class="cls-3" x="225.27" y="28.28" width="12.11" height="131.68"/><rect class="cls-3" x="219.97" y="53.34" width="10.03" height="106.62"/><rect class="cls-3" x="224.79" y="91.64" width="6.05" height="68.32"/><rect class="cls-3" x="284.38" y="123.9" width="6.05" height="36.06"/><rect class="cls-3" x="215.43" y="71.77" width="4.07" height="88.19"/><rect class="cls-3" x="207.49" y="76.67" width="4.07" height="83.29"/><rect class="cls-3" x="207.2" y="75.8" width="21.09" height="84.16"/><rect class="cls-3" x="243.8" y="53.34" width="22.23" height="106.62"/><rect class="cls-3" x="240.12" y="67.16" width="17.12" height="92.8"/><rect class="cls-3" x="263.1" y="76.09" width="23.36" height="83.87"/><rect class="cls-3" x="259.13" y="85.6" width="23.36" height="74.36"/><rect class="cls-3" x="236.43" y="113.82" width="29.04" height="46.14"/><rect class="cls-3" x="276.43" y="95.96" width="14.85" height="63.99"/><rect class="cls-3" x="214.58" y="59.1" width="1.8" height="100.86"/><rect class="cls-3" x="181.76" y="58.33" width="10.03" height="101.63"/><rect class="cls-3" x="176.37" y="64.09" width="1.8" height="95.87"/><rect class="cls-3" x="140.14" y="83.29" width="10.03" height="76.67"/><rect class="cls-3" x="134.75" y="87.55" width="1.8" height="72.41"/><rect class="cls-3" x="260.55" y="62.26" width="1.8" height="97.69"/><rect class="cls-3" x="298.85" y="72.06" width="1.8" height="87.9"/><rect class="cls-3" x="269.81" y="77.24" width="1.8" height="82.72"/><rect class="cls-3" x="201.44" y="49.56" width="1.8" height="110.4"/><rect class="cls-3" x="216.13" y="6.15" width="1.8" height="86.79"/><rect class="cls-3" x="195.8" y="48.29" width="1.8" height="111.67"/><rect class="cls-3" x="239.55" y="117.37" width="7.76" height="42.58"/><rect class="cls-3" x="266.22" y="117.37" width="7.76" height="42.58"/><rect class="cls-3" x="208.34" y="87.13" width="7.76" height="72.83"/><rect class="cls-3" x="202.95" y="87.13" width="2.65" height="72.83"/><rect class="cls-3" x="210.32" y="90.01" width="20.52" height="69.95"/><rect class="cls-3" x="286.08" y="104.7" width="19.39" height="55.26"/><rect class="cls-3" x="263.67" y="107.29" width="19.39" height="52.67"/><rect class="cls-4" x="81.85" y="69.28" width="1.28" height="90.68"/><rect class="cls-4" x="84.41" y="69.28" width="1.29" height="90.68"/><rect class="cls-4" x="86.99" y="69.28" width="1.29" height="90.68"/><rect class="cls-4" x="89.56" y="69.28" width="1.28" height="90.68"/><rect class="cls-4" x="471.16" y="41.96" width="1.28" height="118"/><rect class="cls-4" x="473.72" y="41.96" width="1.29" height="118"/><rect class="cls-4" x="476.3" y="41.96" width="1.29" height="118"/><rect class="cls-4" x="478.87" y="41.96" width="1.28" height="118"/></g></g></svg>