<?xml version="1.0" encoding="utf-8"?>
<!-- Generator: Adobe Illustrator 26.3.1, SVG Export Plug-In . SVG Version: 6.00 Build 0)  -->
<svg version="1.1" id="Layer_1" xmlns="http://www.w3.org/2000/svg" xmlns:xlink="http://www.w3.org/1999/xlink" x="0px" y="0px"
	 viewBox="0 0 500 500" style="enable-background:new 0 0 500 500;" xml:space="preserve">
<style type="text/css">
	.st0{fill:#FFFFFF;}
	.st1{fill:#4A86C6;}
	.st2{fill:#EE2930;}
</style>
<g id="Layer_1_00000158002697082791016400000003431065310424627880_">
	<g>
		<path d="M462.6,237.3L262.7,37.4c-7-7-18.4-7-25.4,0L37.4,237.3c-7,7-7,18.4,0,25.4l199.9,199.9c3.5,3.5,8.1,5.2,12.7,5.2
			c4.6,0,9.2-1.8,12.7-5.2l199.9-199.9C469.6,255.7,469.6,244.3,462.6,237.3z M459,259.2L259.2,459c-5,5-13.2,5-18.3,0L41,259.2
			c-5.1-5.1-5.1-13.3,0-18.3L240.8,41c5-5,13.3-5,18.3,0L459,240.8C464.1,245.9,464.1,254.1,459,259.2z"/>
		<path class="st0" d="M459,240.8L259.2,41c-5-5-13.3-5-18.3,0L41,240.8c-5.1,5-5.1,13.3,0,18.3L240.8,459c5.1,5,13.3,5,18.3,0
			L459,259.2C464.1,254.1,464.1,245.9,459,240.8z M221.1,92.6L243.7,70l133.1,133.1l-22.6,22.6L301,172.5L196,277.6l-26.7-26.7
			l105-105L221.1,92.6z M278.6,407.4L256,430L123,296.9l22.6-22.6l53.2,53.1l105-105.1l26.7,26.7l-105.1,105L278.6,407.4z
			 M384.7,282.6c-2.1,2.1-4.9,3.3-7.9,3.3c-3,0-5.8-1.2-7.9-3.3c-3.8-3.8-4.3-9.5-1.6-13.9v0l-58.9-58.9c-1.8,1.1-3.9,1.7-6,1.7
			s-4.1-0.6-6-1.7L252,254.4l-44.4,44.4c1.1,1.8,1.7,3.8,1.7,6c0,3-1.2,5.8-3.3,7.9c-2.1,2.1-4.9,3.3-7.9,3.3c-3,0-5.8-1.2-7.9-3.3
			c-2.1-2.1-3.3-4.9-3.3-7.9c0-2.1,0.6-4.2,1.7-5.9l-59.5-59.5c-1.8,1.1-3.9,1.7-5.9,1.7c-2.9,0-5.7-1.1-7.9-3.3
			c-4.4-4.4-4.4-11.5,0-15.8c2.2-2.2,5-3.3,7.9-3.3c2.9,0,5.7,1.1,7.9,3.3c3.8,3.8,4.3,9.5,1.6,13.9l59.4,59.4h0
			c1.8-1.1,3.8-1.7,5.9-1.7c2.1,0,4.2,0.6,5.9,1.7l44.4-44.4l44.5-44.5c-2.7-4.3-2.2-10.1,1.6-13.9c2.2-2.2,5-3.3,7.9-3.3
			s5.7,1.1,7.9,3.3c2.1,2.1,3.3,4.9,3.3,7.9c0,2.1-0.6,4.2-1.7,5.9l58.9,58.9v0h0c1.8-1.1,3.8-1.7,5.9-1.7c3,0,5.8,1.2,7.9,3.3
			C389.1,271.2,389.1,278.3,384.7,282.6z"/>
		<g>
			<g>
				<polygon class="st1" points="376.8,203.1 354.2,225.7 301,172.5 196,277.6 169.3,250.9 274.4,145.9 221.1,92.6 243.7,70 				"/>
			</g>
			<g>
				<polygon class="st2" points="225.3,354.1 278.6,407.4 256,430 123,296.9 145.5,274.3 198.7,327.5 303.7,222.4 330.4,249.1 				
					"/>
			</g>
			<path class="st1" d="M300.2,206.1L300.2,206.1L300.2,206.1l-1.9,1.9v0h0l-1.8,1.8L252,254.4l-3.5-3.5l44.5-44.5l1.8-1.8v0
				l1.9-1.9c0.3,0.8,0.8,1.5,1.4,2.1c0.1,0.1,0.2,0.2,0.2,0.2c0.1,0.1,0.2,0.2,0.3,0.3c0.1,0.1,0.3,0.2,0.4,0.3c0,0,0.1,0,0.1,0.1
				c0.2,0.1,0.3,0.2,0.5,0.3C299.8,206,300,206.1,300.2,206.1z"/>
			<path class="st1" d="M372.6,267l-0.2,0.2l-3.2,3.2l-0.2,0.2l-1.8-1.8v0l-58.9-58.9l-1.8-1.8h0l-1.9-1.9h0v0
				c0.8-0.3,1.5-0.8,2.1-1.4c0.6-0.6,1.1-1.3,1.4-2.1l1.9,1.9v0l1.8,1.8l58.9,58.9v0h0L372.6,267z"/>
			<path class="st2" d="M195.8,298.9c-0.8,0.3-1.5,0.8-2.1,1.4c-0.6,0.6-1.1,1.3-1.4,2.1l-1.9-1.9l-1.8-1.8l-61-61l1.8-1.8v0
				c0.1-0.1,0.2-0.2,0.3-0.3l1.5-1.5l61,61l1.8,1.8L195.8,298.9z"/>
			<path class="st2" d="M252,254.4l-44.4,44.4l-1.8,1.8l-1.9,1.9c-0.3-0.8-0.8-1.5-1.4-2.1v0c-0.6-0.6-1.3-1.1-2.1-1.4l1.9-1.9h0v0
				l1.8-1.8l44.4-44.4L252,254.4z"/>
			<g>
				<path class="st0" d="M205.8,300.6L205.8,300.6c-0.4-0.7-0.9-1.4-1.5-2c-0.6-0.6-1.3-1.1-2-1.5h0c-2.6-1.4-5.7-1.4-8.2,0
					c-0.7,0.4-1.4,0.9-2,1.5c-0.6,0.6-1.1,1.3-1.5,2c-1.8,3.3-1.3,7.5,1.5,10.3c3.4,3.4,8.9,3.4,12.3,0
					C207,308.1,207.5,303.9,205.8,300.6z M202.5,309.1c-1.2,1.2-2.7,1.8-4.4,1.8c-0.2,0-0.3,0-0.5,0c-0.1,0-0.2,0-0.3,0
					c-0.3,0-0.7-0.1-1-0.2c-0.4-0.1-0.8-0.3-1.1-0.5c-0.3-0.2-0.7-0.4-1-0.7c-0.2-0.1-0.3-0.3-0.5-0.4c-1.2-1.2-1.8-2.7-1.8-4.4
					c0-0.8,0.1-1.5,0.4-2.2c0.3-0.8,0.8-1.5,1.4-2.1c0.6-0.6,1.3-1.1,2.1-1.4c0.7-0.3,1.5-0.4,2.2-0.4c0.8,0,1.5,0.1,2.2,0.4
					c0.8,0.3,1.5,0.8,2.1,1.4c0.6,0.6,1.1,1.3,1.4,2.1v0c0.3,0.7,0.4,1.5,0.4,2.2C204.3,306.4,203.7,307.9,202.5,309.1z"/>
				<path class="st2" d="M207.6,298.8c-0.4-0.7-1-1.4-1.6-2c-0.6-0.6-1.3-1.1-2-1.6c-1.8-1.1-3.8-1.7-5.9-1.7
					c-2.1,0-4.2,0.6-5.9,1.7h0c-0.7,0.5-1.4,1-2,1.6c-0.6,0.6-1.1,1.3-1.6,2v0c-1.1,1.8-1.7,3.8-1.7,5.9c0,3,1.2,5.8,3.3,7.9
					c2.1,2.1,4.9,3.3,7.9,3.3c3,0,5.8-1.2,7.9-3.3c2.1-2.1,3.3-4.9,3.3-7.9C209.3,302.6,208.7,300.5,207.6,298.8z M197.6,310.9
					c-0.1,0-0.2,0-0.3,0c-0.3,0-0.7-0.1-1-0.2c-0.4-0.1-0.8-0.3-1.1-0.5c-0.3-0.2-0.7-0.4-1-0.7c-0.2-0.1-0.3-0.3-0.5-0.4
					c-1.2-1.2-1.8-2.7-1.8-4.4c0-0.8,0.1-1.5,0.4-2.2c0.3-0.8,0.8-1.5,1.4-2.1c0.6-0.6,1.3-1.1,2.1-1.4c0.7-0.3,1.5-0.4,2.2-0.4
					c0.8,0,1.5,0.1,2.2,0.4c0.8,0.3,1.5,0.8,2.1,1.4c0.6,0.6,1.1,1.3,1.4,2.1v0c0.3,0.7,0.4,1.5,0.4,2.2c0,1.7-0.6,3.2-1.8,4.4
					c-1.2,1.2-2.7,1.8-4.4,1.8C197.9,310.9,197.8,310.9,197.6,310.9z"/>
				<path class="st0" d="M204.3,304.7c0,1.7-0.6,3.2-1.8,4.4c-1.2,1.2-2.7,1.8-4.4,1.8c-0.2,0-0.3,0-0.5,0c-0.1,0-0.2,0-0.3,0
					c-0.3,0-0.7-0.1-1-0.2c-0.4-0.1-0.8-0.3-1.1-0.5c-0.3-0.2-0.7-0.4-1-0.7c-0.2-0.1-0.3-0.3-0.5-0.4c-1.2-1.2-1.8-2.7-1.8-4.4
					c0-0.8,0.1-1.5,0.4-2.2c0.3-0.8,0.8-1.5,1.4-2.1c0.6-0.6,1.3-1.1,2.1-1.4c0.7-0.3,1.5-0.4,2.2-0.4c0.8,0,1.5,0.1,2.2,0.4
					c0.8,0.3,1.5,0.8,2.1,1.4c0.6,0.6,1.1,1.3,1.4,2.1v0C204.2,303.2,204.3,303.9,204.3,304.7z"/>
			</g>
			<g>
				<path class="st0" d="M129.4,223.7c-3.4-3.4-8.9-3.4-12.3,0c-3.4,3.4-3.4,8.9,0,12.3c3.4,3.4,8.9,3.4,12.3,0
					c0.1-0.1,0.2-0.2,0.3-0.3v0C132.8,232.2,132.7,227,129.4,223.7z M127.6,234.2c-2.4,2.4-6.3,2.4-8.8,0c-2.4-2.4-2.4-6.3,0-8.8
					c2.4-2.4,6.3-2.4,8.8,0C130,227.9,130,231.8,127.6,234.2z"/>
				<path class="st2" d="M131.1,221.9c-2.2-2.2-5-3.3-7.9-3.3c-2.9,0-5.7,1.1-7.9,3.3c-4.4,4.4-4.4,11.5,0,15.8
					c2.2,2.2,5,3.3,7.9,3.3c2.1,0,4.1-0.6,5.9-1.7c0.7-0.4,1.4-1,2-1.6s1.1-1.3,1.6-2C135.4,231.5,134.9,225.7,131.1,221.9z
					 M118.8,234.2c-2.4-2.4-2.4-6.3,0-8.8c2.4-2.4,6.3-2.4,8.8,0c2.4,2.4,2.4,6.3,0,8.8C125.2,236.6,121.2,236.6,118.8,234.2z"/>
				<path class="st0" d="M127.6,234.2c-2.4,2.4-6.3,2.4-8.8,0c-2.4-2.4-2.4-6.3,0-8.8c2.4-2.4,6.3-2.4,8.8,0
					C130,227.9,130,231.8,127.6,234.2z"/>
			</g>
			<g>
				<path class="st0" d="M299.2,205.6c0.2,0.1,0.3,0.2,0.5,0.3c0.2,0.1,0.4,0.2,0.6,0.2C299.8,206,299.5,205.8,299.2,205.6z
					 M308.6,194.2c-3.4-3.4-8.9-3.4-12.3,0c-2.8,2.8-3.3,7-1.5,10.3v0c0.4,0.7,0.9,1.4,1.5,2c0.6,0.6,1.3,1.1,2,1.5h0
					c2.6,1.4,5.7,1.4,8.2,0h0c0.7-0.4,1.4-0.9,2-1.5c0.6-0.6,1.1-1.3,1.5-2v0C311.9,201.2,311.4,197,308.6,194.2z M306.8,204.8
					c-0.6,0.6-1.4,1.1-2.1,1.4c-0.4,0.1-0.7,0.2-1.1,0.3c-0.4,0.1-0.8,0.1-1.1,0.1s-0.8,0-1.1-0.1c-0.4-0.1-0.7-0.2-1.1-0.3
					s-0.7-0.3-1-0.5c0,0-0.1,0-0.1-0.1c-0.1-0.1-0.3-0.2-0.4-0.3c-0.1-0.1-0.2-0.2-0.3-0.3c-0.1-0.1-0.2-0.1-0.2-0.2
					c-0.6-0.6-1.1-1.4-1.4-2.1c-0.9-2.2-0.4-4.8,1.4-6.6v0c0.2-0.1,0.3-0.3,0.5-0.4c0.6-0.5,1.4-0.9,2.1-1.1c0.1,0,0.3-0.1,0.4-0.1
					c0.1,0,0.3-0.1,0.4-0.1c0,0,0,0,0,0c0.6-0.1,1.2-0.1,1.8,0c0.1,0,0.3,0,0.4,0.1c0.1,0,0.3,0.1,0.4,0.1c0.8,0.2,1.5,0.6,2.1,1.1
					c0.2,0.1,0.3,0.3,0.5,0.4v0c1.2,1.2,1.8,2.7,1.8,4.4c0,0.8-0.1,1.5-0.4,2.2C307.9,203.4,307.4,204.1,306.8,204.8z"/>
				<path class="st1" d="M310.4,192.5c-2.2-2.2-5-3.3-7.9-3.3s-5.7,1.1-7.9,3.3c-3.8,3.8-4.3,9.5-1.6,13.9c0.4,0.7,0.9,1.4,1.6,2
					c0.6,0.6,1.3,1.1,2,1.6c1.8,1.1,3.9,1.7,6,1.7s4.1-0.6,6-1.7c0.7-0.4,1.4-1,2-1.6c0.6-0.6,1.1-1.3,1.6-2
					c1.1-1.8,1.7-3.8,1.7-5.9C313.6,197.4,312.5,194.6,310.4,192.5z M306.8,204.8L306.8,204.8c-0.6,0.6-1.4,1.1-2.1,1.4h0
					c-0.4,0.1-0.7,0.2-1.1,0.3c-0.4,0.1-0.8,0.1-1.1,0.1s-0.8,0-1.1-0.1c-0.4-0.1-0.7-0.2-1.1-0.3h0c-0.2-0.1-0.4-0.2-0.6-0.3
					c-0.2-0.1-0.3-0.2-0.5-0.3c0,0-0.1,0-0.1-0.1c-0.4-0.2-0.7-0.5-1-0.8v0c-0.6-0.6-1.1-1.4-1.4-2.1c-0.9-2.2-0.4-4.8,1.4-6.6
					c0.2-0.1,0.3-0.3,0.5-0.4c0.6-0.5,1.4-0.9,2.1-1.1c0.1,0,0.3-0.1,0.4-0.1c0.2,0,0.3-0.1,0.4-0.1c0,0,0,0,0,0
					c0.6-0.1,1.2-0.1,1.8,0c0.1,0,0.3,0,0.4,0.1c0.1,0,0.3,0.1,0.4,0.1c0.8,0.2,1.5,0.6,2.1,1.1c0.2,0.1,0.3,0.3,0.5,0.4
					c1.2,1.2,1.8,2.7,1.8,4.4c0,0.8-0.1,1.5-0.4,2.2C307.9,203.4,307.4,204.1,306.8,204.8z"/>
				<path class="st0" d="M308.6,200.4c0,0.8-0.1,1.5-0.4,2.2c-0.3,0.8-0.8,1.5-1.4,2.1c-0.6,0.6-1.4,1.1-2.1,1.4
					c-0.4,0.1-0.7,0.2-1.1,0.3c-0.4,0.1-0.8,0.1-1.1,0.1s-0.8,0-1.1-0.1c-0.4-0.1-0.7-0.2-1.1-0.3s-0.7-0.3-1-0.5c0,0-0.1,0-0.1-0.1
					c-0.1-0.1-0.3-0.2-0.4-0.3c-0.1-0.1-0.2-0.2-0.3-0.3c-0.1-0.1-0.2-0.1-0.2-0.2c-0.6-0.6-1.1-1.4-1.4-2.1
					c-0.9-2.2-0.4-4.8,1.4-6.6c0.2-0.1,0.3-0.3,0.5-0.4c0.6-0.5,1.4-0.9,2.1-1.1c0.1,0,0.3-0.1,0.4-0.1c0.2,0,0.3-0.1,0.4-0.1
					c0,0,0,0,0,0c0.6-0.1,1.2-0.1,1.8,0c0.1,0,0.3,0,0.4,0.1c0.1,0,0.3,0.1,0.4,0.1c0.8,0.2,1.5,0.6,2.1,1.1
					c0.2,0.1,0.3,0.3,0.5,0.4C308,197.2,308.6,198.7,308.6,200.4z"/>
			</g>
			<g>
				<path class="st0" d="M382.9,268.6c-2.8-2.8-7.2-3.3-10.5-1.4c-0.7,0.4-1.2,0.8-1.8,1.4c-0.5,0.5-1,1.1-1.4,1.8
					c-2,3.3-1.5,7.7,1.4,10.5c3.4,3.4,8.9,3.4,12.3,0C386.3,277.5,386.3,272,382.9,268.6z M381.2,279.1c-1.2,1.2-2.7,1.8-4.4,1.8
					c-0.2,0-0.3,0-0.5,0c-0.1,0-0.2,0-0.3,0c-0.4,0-0.7-0.1-1-0.2c-0.4-0.1-0.8-0.3-1.1-0.5c-0.3-0.2-0.7-0.4-1-0.7
					c-0.2-0.1-0.3-0.3-0.5-0.4c-2.4-2.4-2.4-6.3,0-8.8c1.2-1.2,2.7-1.8,4.4-1.8c1.7,0,3.2,0.6,4.4,1.8
					C383.6,272.8,383.6,276.7,381.2,279.1z"/>
				<path class="st1" d="M384.7,266.8c-2.1-2.1-4.9-3.3-7.9-3.3c-2.1,0-4.2,0.6-5.9,1.7h0c-0.7,0.4-1.4,1-2,1.6
					c-0.6,0.6-1.1,1.2-1.6,2v0c-2.7,4.3-2.2,10.1,1.6,13.9c2.1,2.1,4.9,3.3,7.9,3.3c3,0,5.8-1.2,7.9-3.3
					C389.1,278.3,389.1,271.2,384.7,266.8z M376.3,280.9c-0.1,0-0.2,0-0.3,0c-0.4,0-0.7-0.1-1-0.2c-0.4-0.1-0.8-0.3-1.1-0.5
					c-0.3-0.2-0.7-0.4-1-0.7c-0.2-0.1-0.3-0.3-0.5-0.4c-2.4-2.4-2.4-6.3,0-8.8c1.2-1.2,2.7-1.8,4.4-1.8c1.7,0,3.2,0.6,4.4,1.8
					c2.4,2.4,2.4,6.3,0,8.8c-1.2,1.2-2.7,1.8-4.4,1.8C376.6,280.9,376.4,280.9,376.3,280.9z"/>
				<path class="st0" d="M381.2,279.1c-1.2,1.2-2.7,1.8-4.4,1.8c-0.2,0-0.3,0-0.5,0c-0.1,0-0.2,0-0.3,0c-0.4,0-0.7-0.1-1-0.2
					c-0.4-0.1-0.8-0.3-1.1-0.5c-0.3-0.2-0.7-0.4-1-0.7c-0.2-0.1-0.3-0.3-0.5-0.4c-2.4-2.4-2.4-6.3,0-8.8c1.2-1.2,2.7-1.8,4.4-1.8
					c1.7,0,3.2,0.6,4.4,1.8C383.6,272.8,383.6,276.7,381.2,279.1z"/>
			</g>
		</g>
	</g>
</g>
</svg>
